name analog
datacolumns 19
datarows 60
range 0.5255 0.555
endheader
time	ground_force_vx	ground_force_vy	ground_force_vz	ground_force_px	ground_force_py	ground_force_pz	l_ground_force_vx	l_ground_force_vy	l_ground_force_vz	l_ground_force_px	l_ground_force_py	l_ground_force_pz	ground_torque_x	ground_torque_y	ground_torque_z	l_ground_torque_x	l_ground_torque_y	l_ground_torque_z
0.5255	-0.0	-0.0	-0.0	-36.06220245361328	20.286500930786133	-986.4315185546876	-0.0	-0.0	-0.0	-0.0	-0.0	-0.0	-0.0	-0.0	-0.0	-0.0	-0.0	-0.0
0.526	-0.0	-0.0	-0.0	-36.58331298828125	19.540550231933597	-986.3483276367188	-0.0	-0.0	-0.0	-0.0	-0.0	-0.0	-0.0	-0.0	-0.0	-0.0	-0.0	-0.0
0.5265	-0.0	-0.0	-0.0	-36.94701385498047	19.95828628540039	-986.1058349609376	-0.0	-0.0	-0.0	-0.0	-0.0	-0.0	-0.0	-0.0	-0.0	-0.0	-0.0	-0.0
0.527	-0.0	-0.0	-0.0	-37.73604583740234	20.068071365356445	-984.9915771484376	-0.0	-0.0	-0.0	-0.0	-0.0	-0.0	-0.0	-0.0	-0.0	-0.0	-0.0	-0.0
0.5275	-0.0	-0.0	-0.0	-37.59856033325195	20.5891227722168	-985.6712036132812	-0.0	-0.0	-0.0	-0.0	-0.0	-0.0	-0.0	-0.0	-0.0	-0.0	-0.0	-0.0
0.528	-0.0	-0.0	-0.0	-38.69036102294922	21.08344268798828	-983.3865356445312	-0.0	-0.0	-0.0	-0.0	-0.0	-0.0	-0.0	-0.0	-0.0	-0.0	-0.0	-0.0
0.5285	-0.0	-0.0	-0.0	-38.63485336303711	21.04816436767578	-984.4186401367188	-0.0	-0.0	-0.0	-0.0	-0.0	-0.0	-0.0	-0.0	-0.0	-0.0	-0.0	-0.0
0.529	-0.0	-0.0	-0.0	-38.96510696411133	21.467182159423828	-983.9593505859376	-0.0	-0.0	-0.0	-0.0	-0.0	-0.0	-0.0	-0.0	-0.0	-0.0	-0.0	-0.0
0.5295	-0.0	-0.0	-0.0	-38.73706817626953	21.45036506652832	-985.0447998046876	-0.0	-0.0	-0.0	-0.0	-0.0	-0.0	-0.0	-0.0	-0.0	-0.0	-0.0	-0.0
0.53	-0.0	-0.0	-0.0	-39.341835021972656	22.130395889282227	-985.2429809570312	-0.0	-0.0	-0.0	-0.0	-0.0	-0.0	-0.0	-0.0	-0.0	-0.0	-0.0	-0.0
0.5305	-0.0	-0.0	-0.0	-39.43104553222656	22.44153594970703	-984.3380126953124	-0.0	-0.0	-0.0	-0.0	-0.0	-0.0	-0.0	-0.0	-0.0	-0.0	-0.0	-0.0
0.531	-0.0	-0.0	-0.0	-39.545806884765625	22.82376480102539	-985.9266357421876	-0.0	-0.0	-0.0	-0.0	-0.0	-0.0	-0.0	-0.0	-0.0	-0.0	-0.0	-0.0
0.5315	-0.0	-0.0	-0.0	-40.04284286499024	23.28203392028809	-983.7064819335938	-0.0	-0.0	-0.0	-0.0	-0.0	-0.0	-0.0	-0.0	-0.0	-0.0	-0.0	-0.0
0.532	-0.0	-0.0	-0.0	-40.09311676025391	23.26929473876953	-986.4811401367188	-0.0	-0.0	-0.0	-0.0	-0.0	-0.0	-0.0	-0.0	-0.0	-0.0	-0.0	-0.0
0.5325	-0.0	-0.0	-0.0	-40.59700012207031	23.63819122314453	-985.3474731445312	-0.0	-0.0	-0.0	-0.0	-0.0	-0.0	-0.0	-0.0	-0.0	-0.0	-0.0	-0.0
0.533	-0.0	-0.0	-0.0	-41.57209777832031	24.071346282958984	-984.2881469726562	-0.0	-0.0	-0.0	-0.0	-0.0	-0.0	-0.0	-0.0	-0.0	-0.0	-0.0	-0.0
0.5335	-0.0	-0.0	-0.0	-41.66739273071289	23.89302635192871	-983.3493041992188	-0.0	-0.0	-0.0	-0.0	-0.0	-0.0	-0.0	-0.0	-0.0	-0.0	-0.0	-0.0
0.534	-0.0	-0.0	-0.0	-42.10736083984375	23.82797241210937	-982.8997802734376	-0.0	-0.0	-0.0	-0.0	-0.0	-0.0	-0.0	-0.0	-0.0	-0.0	-0.0	-0.0
0.5345	-0.0	-0.0	-0.0	-42.29771041870117	23.958202362060547	-982.8053588867188	-0.0	-0.0	-0.0	-0.0	-0.0	-0.0	-0.0	-0.0	-0.0	-0.0	-0.0	-0.0
0.535	-0.0	-0.0	-0.0	-43.20154571533203	24.094757080078125	-980.0743408203124	-0.0	-0.0	-0.0	-0.0	-0.0	-0.0	-0.0	-0.0	-0.0	-0.0	-0.0	-0.0
0.5355	-0.0	-0.0	-0.0	-42.87374114990234	24.07105827331543	-979.8139038085938	-0.0	-0.0	-0.0	-0.0	-0.0	-0.0	-0.0	-0.0	-0.0	-0.0	-0.0	-0.0
0.536	-0.0	-0.0	-0.0	-43.87422561645508	24.231914520263672	-978.753173828125	-0.0	-0.0	-0.0	-0.0	-0.0	-0.0	-0.0	-0.0	-0.0	-0.0	-0.0	-0.0
0.5365	-0.0	-0.0	-0.0	-44.337623596191406	24.142881393432617	-978.1495971679688	-0.0	-0.0	-0.0	-0.0	-0.0	-0.0	-0.0	-0.0	-0.0	-0.0	-0.0	-0.0
0.537	-0.0	-0.0	-0.0	-44.37724685668945	23.42998504638672	-976.0548706054688	-0.0	-0.0	-0.0	-0.0	-0.0	-0.0	-0.0	-0.0	-0.0	-0.0	-0.0	-0.0
0.5375	-0.0	-0.0	-0.0	-45.16292572021485	23.463680267333984	-972.72412109375	-0.0	-0.0	-0.0	-0.0	-0.0	-0.0	-0.0	-0.0	-0.0	-0.0	-0.0	-0.0
0.538	-0.0	-0.0	-0.0	-45.95451736450195	23.88139915466309	-972.5256958007812	-0.0	-0.0	-0.0	-0.0	-0.0	-0.0	-0.0	-0.0	-0.0	-0.0	-0.0	-0.0
0.5385	-0.0	-0.0	-0.0	-46.573368072509766	23.719636917114254	-968.23974609375	-0.0	-0.0	-0.0	-0.0	-0.0	-0.0	-0.0	-0.0	-0.0	-0.0	-0.0	-0.0
0.539	-0.0	-0.0	-0.0	-46.9464111328125	23.64122009277344	-968.6223754882812	-0.0	-0.0	-0.0	-0.0	-0.0	-0.0	-0.0	-0.0	-0.0	-0.0	-0.0	-0.0
0.5395	-0.0	-0.0	-0.0	-48.41981887817383	23.97071075439453	-964.8663330078124	-0.0	-0.0	-0.0	-0.0	-0.0	-0.0	-0.0	-0.0	-0.0	-0.0	-0.0	-0.0
0.54	-0.0	-0.0	-0.0	-48.69304275512695	23.99196052551269	-962.78955078125	-0.0	-0.0	-0.0	-0.0	-0.0	-0.0	-0.0	-0.0	-0.0	-0.0	-0.0	-0.0
0.5405	-0.0	-0.0	-0.0	-49.42787170410156	23.55140686035156	-961.5842895507812	-0.0	-0.0	-0.0	-0.0	-0.0	-0.0	-0.0	-0.0	-0.0	-0.0	-0.0	-0.0
0.541	-0.0	-0.0	-0.0	-50.561649322509766	23.939870834350582	-958.1361083984376	-0.0	-0.0	-0.0	-0.0	-0.0	-0.0	-0.0	-0.0	-0.0	-0.0	-0.0	-0.0
0.5415	-0.0	-0.0	-0.0	-50.75054550170898	23.86138153076172	-953.394775390625	-0.0	-0.0	-0.0	-0.0	-0.0	-0.0	-0.0	-0.0	-0.0	-0.0	-0.0	-0.0
0.542	-0.0	-0.0	-0.0	-50.80640411376953	24.258663177490234	-952.0928344726562	-0.0	-0.0	-0.0	-0.0	-0.0	-0.0	-0.0	-0.0	-0.0	-0.0	-0.0	-0.0
0.5425	-0.0	-0.0	-0.0	-51.22182083129883	24.33759117126465	-948.9549560546876	-0.0	-0.0	-0.0	-0.0	-0.0	-0.0	-0.0	-0.0	-0.0	-0.0	-0.0	-0.0
0.543	-0.0	-0.0	-0.0	-50.85492706298828	24.93678092956543	-946.4440307617188	-0.0	-0.0	-0.0	-0.0	-0.0	-0.0	-0.0	-0.0	-0.0	-0.0	-0.0	-0.0
0.5435	-0.0	-0.0	-0.0	-51.281375885009766	25.758686065673828	-942.8743286132812	-0.0	-0.0	-0.0	-0.0	-0.0	-0.0	-0.0	-0.0	-0.0	-0.0	-0.0	-0.0
0.544	-0.0	-0.0	-0.0	-50.58717346191406	26.28865623474121	-939.08642578125	-9.415258407592772	-7.7960333824157715	-20.321134567260746	-0.0	-0.0	-0.0	-0.0	-0.0	-0.0	6849.2041015625	-2726.007080078125	-1705.5028076171875
0.5445	-0.0	-0.0	-0.0	-50.042327880859375	26.82825088500977	-933.8265991210938	-12.141560554504396	-9.23840045928955	-24.58014678955078	-0.0	-0.0	-0.0	-0.0	-0.0	-0.0	8199.5068359375	-3395.353759765625	-2340.610107421875
0.545	-0.0	-0.0	-0.0	-49.169071197509766	27.45685386657715	-932.0418701171876	-10.261269569396973	-9.327235221862791	-28.67637252807617	-0.0	-0.0	-0.0	-0.0	-0.0	-0.0	9716.87890625	-4100.97314453125	-1740.3294677734375
0.5455	-0.0	-0.0	-0.0	-48.24898147583008	28.35735893249512	-928.7898559570312	-4.022921562194824	-7.3422040939331055	-34.82420349121094	-0.0	-0.0	-0.0	-0.0	-0.0	-0.0	11336.4873046875	-5250.51416015625	129.38560485839844
0.546	-0.0	-0.0	-0.0	-47.361610412597656	29.221027374267575	-925.1861572265624	6.052469253540039	-4.259318828582764	-40.22007751464844	-0.0	-0.0	-0.0	-0.0	-0.0	-0.0	13339.78515625	-6585.11572265625	3433.743408203125
0.5465	-0.0	-0.0	-0.0	-46.13988494873047	29.94330596923828	-917.8967895507812	20.24481773376465	0.3701812624931335	-44.10441589355469	-0.0	-0.0	-0.0	-0.0	-0.0	-0.0	15075.4365234375	-7671.8955078125	7605.30224609375
0.547	-0.0	-0.0	-0.0	-45.84529495239258	30.571727752685547	-913.3057250976562	34.530887603759766	4.885557651519775	-51.957496643066406	-0.0	-0.0	-0.0	-0.0	-0.0	-0.0	17620.58984375	-9555.671875	11711.84375
0.5475	-0.0	-0.0	-0.0	-45.57335662841797	30.687265396118164	-907.9558715820312	49.63379669189453	11.305251121520996	-64.0476303100586	-0.0	-0.0	-0.0	-0.0	-0.0	-0.0	22229.37109375	-11618.6474609375	16238.4716796875
0.548	-0.0	-0.0	-0.0	-45.39081954956055	31.182655334472656	-901.315185546875	67.3588638305664	11.94523811340332	-88.70606231689453	-0.0	-0.0	-0.0	-0.0	-0.0	-0.0	28932.611328125	-13308.044921875	21366.203125
0.5485	-0.0	-0.0	-0.0	-45.91770935058594	31.102230072021484	-894.302490234375	71.80330657958984	12.078453063964844	-125.65184783935548	-0.0	-0.0	-0.0	-0.0	-0.0	-0.0	39844.16796875	-13343.6650390625	24033.0
0.549	-0.0	-0.0	-0.0	-46.53841018676758	31.81534576416016	-888.1808471679688	56.07057189941406	6.377486705780029	-131.2599334716797	-0.0	-0.0	-0.0	-0.0	-0.0	-0.0	41899.50390625	-15731.5546875	19032.86328125
0.5495	-0.0	-0.0	-0.0	-46.66124725341797	31.92112922668457	-882.9005126953125	46.26995086669922	6.099470138549805	-145.63792419433594	-0.0	-0.0	-0.0	-0.0	-0.0	-0.0	46833.5859375	-16754.986328125	16287.68359375
0.55	-0.0	-0.0	-0.0	-46.66940689086914	32.64632034301758	-869.5452880859375	39.68521499633789	3.511965751647949	-172.21437072753906	-0.0	-0.0	-0.0	-0.0	-0.0	-0.0	54711.1796875	-17027.1640625	13515.552734375
0.5505	-0.0	-0.0	-0.0	-46.38946533203125	33.513031005859375	-859.5602416992188	38.26540756225586	-1.2261970043182373	-197.41326904296875	-0.0	-0.0	-0.0	-0.0	-0.0	-0.0	62508.59765625	-17567.904296875	12826.19140625
0.551	-0.0	-0.0	-0.0	-46.14970397949219	33.630008697509766	-847.6791381835938	39.04813003540039	-4.088323593139648	-215.259033203125	-0.0	-0.0	-0.0	-0.0	-0.0	-0.0	68547.0234375	-18327.650390625	13072.05078125
0.5515	-0.0	-0.0	-0.0	-45.67185974121094	33.94301223754883	-833.4735717773438	40.40903091430664	-5.137797355651856	-231.99627685546875	-0.0	-0.0	-0.0	-0.0	-0.0	-0.0	73618.7265625	-19559.4375	13796.6337890625
0.552	-0.0	-0.0	-0.0	-45.326637268066406	32.974403381347656	-819.63916015625	43.32084274291992	-4.65120267868042	-246.9878387451172	-0.0	-0.0	-0.0	-0.0	-0.0	-0.0	77985.3203125	-20400.21484375	14786.0224609375
0.5525	-0.0	-0.0	-0.0	-44.4344367980957	32.788597106933594	-802.4097290039062	45.52842712402344	-5.024483680725098	-263.7263488769531	-0.0	-0.0	-0.0	-0.0	-0.0	-0.0	82942.9140625	-20509.859375	15352.6396484375
0.553	-0.0	-0.0	-0.0	-43.50863265991211	32.36178970336914	-786.4874877929688	44.986122131347656	-6.859966278076172	-276.6815795898437	-0.0	-0.0	-0.0	-0.0	-0.0	-0.0	87201.4921875	-20083.96484375	15219.8701171875
0.5535	-0.0	-0.0	-0.0	-41.72483825683594	31.986818313598636	-769.5064697265625	42.14725875854492	-8.58159065246582	-288.4940185546875	-0.0	-0.0	-0.0	-0.0	-0.0	-0.0	90689.765625	-19821.103515625	14349.0849609375
0.554	-0.0	-0.0	-0.0	-40.4907112121582	31.299236297607425	-754.673828125	38.33259582519531	-10.51502799987793	-301.7045288085937	-0.0	-0.0	-0.0	-0.0	-0.0	-0.0	94290.4921875	-19259.908203125	13228.279296875
0.5545	-0.0	-0.0	-0.0	-39.24907684326172	30.660858154296875	-737.04443359375	35.65234375	-12.899641036987305	-314.67803955078125	-0.0	-0.0	-0.0	-0.0	-0.0	-0.0	97544.65625	-18155.96484375	12263.9072265625
0.555	-0.0	-0.0	-0.0	-38.35352325439453	29.683917999267575	-721.8167114257812	33.532676696777344	-15.809581756591797	-327.5408020019531	-0.0	-0.0	-0.0	-0.0	-0.0	-0.0	101390.671875	-17605.408203125	11641.919921875
